<?xml version="1.0" encoding="UTF-8"?>
<svg version="1.1" viewBox="0 0 587.83 138.63" xml:space="preserve" xmlns="http://www.w3.org/2000/svg" xmlns:cc="http://creativecommons.org/ns#" xmlns:dc="http://purl.org/dc/elements/1.1/" xmlns:rdf="http://www.w3.org/1999/02/22-rdf-syntax-ns#"><metadata><rdf:RDF><cc:Work rdf:about=""><dc:format>image/svg+xml</dc:format><dc:type rdf:resource="http://purl.org/dc/dcmitype/StillImage"/></cc:Work></rdf:RDF></metadata><defs><clipPath id="i"><path d="m1113.6 1039.6-612.59-15.06c-36.683-0.9-69.683-23.57-85.058-58.422-29.5-66.863 17.386-143.14 87.773-142.79l594.58 2.937c45.09 0.227 85.98 27.743 104.88 70.575 29.83 67.605-18.43 144.51-89.58 142.76z"/></clipPath><linearGradient id="d" x2="1" gradientTransform="matrix(805.18 0 0 -805.18 406.97 931.53)" gradientUnits="userSpaceOnUse"><stop stop-color="#a295ff" offset="0"/><stop stop-color="#3632c9" offset=".92179"/><stop stop-color="#3632c9" offset="1"/></linearGradient><clipPath id="h"><path d="m0 0h4408.7v1039.7h-4408.7z"/></clipPath><clipPath id="g"><path d="m739.29 216.27-177.5-4.179-463.41-10.887c-38.379-0.898-72.902-23.566-88.996-58.418-30.859-66.867 18.199-143.14 91.836-142.8l635.34 3.0117c39.078 0.19141 74.507 22.969 90.882 58.449l5.567 12.062c31.207 67.605-19.281 144.51-93.719 142.76z"/></clipPath><linearGradient id="c" x2="1" gradientTransform="matrix(842.4 0 0 -842.4 0 108.15)" gradientUnits="userSpaceOnUse"><stop stop-color="#a295ff" offset="0"/><stop stop-color="#3632c9" offset=".92179"/><stop stop-color="#3632c9" offset="1"/></linearGradient><clipPath id="f"><path d="m243.68 832.72c54.578 0 98.816 44.238 98.816 98.812 0 54.575-44.238 98.823-98.816 98.823-54.574 0-98.817-44.248-98.817-98.823 0-54.574 44.243-98.812 98.817-98.812z"/></clipPath><linearGradient id="b" x2="1" gradientTransform="matrix(197.63 0 0 -197.63 144.86 931.53)" gradientUnits="userSpaceOnUse"><stop stop-color="#a295ff" offset="0"/><stop stop-color="#9488f8" offset=".92179"/><stop stop-color="#9488f8" offset="1"/></linearGradient><clipPath id="e"><path d="m829.26 622.74-61.699 0.297h-2.5c-2.098 0-4.2-0.199-6.297-0.297l-230.5-4.5h-1.301c-1.598 0-3.102 0-4.602-0.203l-5.496-0.199-74.601-2.398c-35.801-1.2-55.703-12.602-66.2-22.2-0.601-0.5-1.203-1.101-1.804-1.699-2.196-2.199-4.399-5.199-6.098-7.699-1.402-2-2.5-3.699-2.699-4.098l-0.098-0.105c-7.601-10.899-17.699-19.699-29.801-24.301-1.8-0.699-3.601-1.195-5.398-1.699-1.504-0.399-3.004-0.699-4.602-0.996-0.199 0-0.503 0-0.8-0.102-1.602-0.297-3.301-0.402-5-0.496-1.102-0.105-2.203-0.203-3.301-0.105-8.598-0.297-15.602 1.3-18.699 2.203-1.203 0.297-1.903 0.496-1.903 0.496-3.699 1.101-7.297 2.5-10.695 4.203-13.301 7.699-24.305 21.199-24.305 21.199-9.101 10.602-20.297 19.301-32.898 25.399-12.797 6.101-27 9.5-42 9.5-54.602 0-98.801-44.2-98.801-98.801 0-54.5 44.199-98.699 98.801-98.699 20.699 0 39.801 6.406 55.699 17.402v-0.098s0.402 0.293 1.203 0.899c0.199 0.195 0.399 0.398 0.699 0.496 2.5 2.004 7.297 5.703 12.5 9.601 0.899 0.703 1.899 1.407 2.899 2.196 3.598 2.804 7.398 5.507 11.203 8.007 2.395 1.7 4.598 3.098 5.996 3.899 0.301 0.195 0.598 0.398 0.801 0.496 12.199 7.199 25.301 11.699 39.699 11.504 16.402-0.399 29.5-6.199 39.801-15.399 3-2.003 5.801-4.296 8.598-6.601 5.304-3.098 10.304-6.699 16.402-10.801 22.199-14.902 36.203-16.105 62.301-19.199 5.097-0.598 10.199-1.203 15.297-1.699l107.4 0.195c4.601-0.598 9.301-0.898 14-0.898l146.1 1.296 38.605 0.305h64.094c3.804 0 7.605 0.301 11.402 0.606 50.602 5.789 90.301 48.992 90.301 101.2v0.098c0 55.902-45.797 101.8-101.7 101.8z"/></clipPath><linearGradient id="a" x2="1" gradientTransform="matrix(843.8 0 0 -843.8 87.166 520.24)" gradientUnits="userSpaceOnUse"><stop stop-color="#a295ff" offset="0"/><stop stop-color="#3632c9" offset=".92179"/><stop stop-color="#3632c9" offset="1"/></linearGradient></defs><g transform="matrix(1.3333 0 0 -1.3333 0 138.63)"><g transform="scale(.1)"><path d="m1532.8 531.34c12.1 28.297 32.41 51.398 61.01 69.398 28.59 17.899 61 26.903 97.3 26.903 36.49 0 69.7-9.004 99.7-27.106 29.89-18.195 50-41.195 60.3-69.195zm434.51-69c1.79 9.199 2.7 17.695 2.7 25.703 0.89 42.098-11.11 81.098-36 116.9-24.91 35.8-59 64.003-102.41 84.605-43.29 20.695-90.09 30.992-140.49 30.992-38 0-74.11-6.195-108.11-18.398-33.99-12.199-63.39-28.699-87.99-49.496-24.6-20.801-44.31-45.399-59.2-74.004-14.91-28.598-22.81-58.797-23.61-90.594-1.2-41.906 10.71-80.605 35.8-116.3 25-35.703 59-63.808 102.1-84.402 43.01-20.598 90-31.301 141.01-31.797 65.4-0.605 120 9.395 163.79 30 43.71 20.594 77.41 46.297 101 76.895l-105.69 32.703c-38.9-34.102-91.9-49.598-159.1-46.407-41.9 1.809-78.31 13.106-109.2 34.102-30.91 20.898-49.71 47.402-56.1 79.504h441.5" fill="#0d0b7a"/><path d="m2519.1 595.44c-22.4 38.601-52.9 69.105-91.49 91.5-38.6 22.402-80.8 33.597-126.6 33.597s-88.1-11.195-126.91-33.597c-38.69-22.395-69.29-52.899-91.7-91.5-22.39-38.598-33.59-80.801-33.59-126.4v-201.2h112.3v219.7c0 38.602 13.5 71.406 40.4 98.403 27 26.898 59.79 40.402 98.39 40.402 38.61 0 71.4-13.504 98.3-40.402 27.01-26.997 40.5-59.801 40.5-98.403v-219.7h114.01v201.2c0 45.598-11.2 87.801-33.61 126.4" fill="#0d0b7a"/><path d="m3028.2 389.44c-32.19-27.098-71.29-40.704-117.29-40.704-46.6 0-86.41 13.704-119.61 41.106-33.1 27.402-49.09 60.098-47.89 98.203 0.79 38.598 17.39 71.5 49.7 98.797 32.29 27.199 71.49 40.801 117.8 40.801 46.49 0 86.3-13.7 119.3-41.102 32.99-27.398 49.1-60.199 48.2-98.496-1.2-38.605-17.9-71.504-50.21-98.605zm50.71 545.9v-271c-20.71 16.797-46.2 30.402-76.51 40.898-30.4 10.5-60.89 15.7-91.49 15.7-80.21 0-146.31-22.399-198.51-67.2-52.1-44.797-79.1-100-80.89-165.7-0.9-41.906 11.1-80.801 35.99-116.7 24.9-36.008 59.1-64.309 102.4-84.903 43.3-20.605 90.31-30.898 141.01-30.898 50.69 0 97.39 10.293 140.1 30.898 42.69 20.594 76.49 48.895 101.49 84.903 24.81 35.898 37.31 74.793 37.31 116.7 0 249.6 0.19 398.7 0.4 447.29h-111.3" fill="#0d0b7a"/><path d="m3657.6 708.14v-219.7c0-38.601-13.51-71.406-40.51-98.406-26.89-26.894-59.7-40.39-98.3-40.39-38.59 0-71.4 13.496-98.29 40.39-27 27-40.51 59.805-40.51 98.406v219.7h-112.29v-201.11c0-45.691 11.2-87.898 33.59-126.39 22.4-38.703 53.01-69.2 91.71-91.602 38.8-22.297 81.09-33.496 126.89-33.496s88 11.199 126.61 33.496c38.6 22.402 69.19 52.899 91.6 91.602 22.29 38.496 33.49 80.703 33.49 126.39v201.11h-113.99" fill="#0d0b7a"/><path d="m3971.6 531.34c12.01 28.297 32.41 51.398 61.01 69.398 28.5 17.899 60.9 26.903 97.2 26.903 36.49 0 69.79-9.004 99.69-27.106 29.91-18.195 50-41.195 60.31-69.195zm434.51-69c1.69 9.199 2.59 17.695 2.59 25.703 0.9 42.098-11.09 81.098-35.99 116.9-24.91 35.8-59.01 64.003-102.31 84.605-43.3 20.695-90.19 30.992-140.59 30.992-38 0-74.01-6.195-108.11-18.398-33.99-12.199-63.29-28.699-87.9-49.496-24.6-20.801-44.39-45.399-59.3-74.004-14.9-28.598-22.69-58.797-23.59-90.594-1.2-41.906 10.69-80.605 35.79-116.3 25-35.703 59.1-63.808 102.1-84.402 43.01-20.598 90-31.301 141.01-31.797 65.4-0.605 120 9.395 163.8 30 43.7 20.594 77.4 46.297 100.99 76.895l-105.69 32.703c-38.91-34.102-91.91-49.598-159.1-46.407-41.91 1.809-78.21 13.106-109.2 34.102-30.9 20.898-49.6 47.402-56.11 79.504h441.61" fill="#0d0b7a"/><g clip-path="url(#i)"><path d="m1113.6 1039.6-612.59-15.06c-36.683-0.9-69.683-23.57-85.058-58.422-29.5-66.863 17.386-143.14 87.773-142.79l594.58 2.937c45.09 0.227 85.98 27.743 104.88 70.575 29.83 67.605-18.43 144.51-89.58 142.76" fill="url(#d)"/></g><g clip-path="url(#h)"><g clip-path="url(#g)"><path d="m86 0v1h-5v1h-5v1h-4v1h-3v1h-3v1h-3v1h-2v1h-2v1h-2v1h-2v1h-2v1h-2v1h-2v1h-1v1h-2v1h-2v1h-1v1h-2v1h-1v1h-1v1h-1v1h-2v1h-1v1h-1v1h-1v1h-1v1h-1v1h-1v1h-1v1h-1v1h-1v1h-1v1h-1v1h-1v1h-1v1h-1v2h-1v1h-1v1h-1v2h-1v1h-1v1h-1v2h-1v2h-1v1h-1v2h-1v2h-1v2h-1v2h-1v2h-1v2h-1v3h-1v2h-1v3h-1v4h-1v3h-1v5h-1v6h-1v27h1v6h1v4h1v5h1v3h1v3h1v3h1v2h1v2h1v3h1v2h1v1h1v2h1v2h1v2h1v1h1v2h1v1h1v1h1v2h1v1h1v1h1v2h1v1h1v1h1v1h1v1h1v1h1v1h1v1h1v1h1v1h1v1h1v1h1v1h1v1h1v1h1v1h2v1h1v1h1v1h2v1h1v1h2v1h1v1h2v1h2v1h2v1h1v1h2v1h2v1h3v1h2v1h3v1h3v1h3v1h4v1h4v1h5v1h8v1h39v1h42v1h43v1h42v1h43v1h42v1h43v1h43v1h42v1h43v1h42v1h43v1h42v1h43v1h42v1h22v-1h8v-1h6v-1h5v-1h3v-1h3v-1h3v-1h3v-1h2v-1h2v-1h2v-1h3v-1h2v-1h1v-1h2v-1h1v-1h2v-1h1v-1h2v-1h1v-1h2v-1h1v-1h1v-1h1v-1h2v-1h1v-1h1v-1h1v-1h1v-1h1v-1h1v-1h1v-1h1v-1h1v-1h1v-1h1v-2h1v-1h1v-1h1v-2h1v-1h1v-1h1v-2h1v-1h1v-2h1v-2h1v-1h1v-2h1v-2h1v-2h1v-2h1v-2h1v-3h1v-2h1v-3h1v-3h1v-4h1v-3h1v-6h1v-7h1v-17h-1v-9h-1v-5h-1v-4h-1v-4h-1v-3h-1v-3h-1v-2h-1v-3h-1v-2h-1v-2h-1v-2h-1v-3h-1v-2h-1v-2h-1v-2h-1v-2h-1v-2h-1v-2h-1v-1h-1v-2h-1v-2h-1v-1h-1v-2h-1v-1h-1v-1h-1v-2h-1v-1h-1v-1h-1v-2h-1v-1h-1v-1h-1v-1h-1v-1h-1v-1h-1v-1h-1v-1h-1v-1h-1v-1h-1v-1h-1v-1h-1v-1h-2v-1h-1v-1h-1v-1h-2v-1h-1v-1h-1v-1h-2v-1h-1v-1h-2v-1h-2v-1h-1v-1h-2v-1h-2v-1h-2v-1h-2v-1h-3v-1h-2v-1h-3v-1h-3v-1h-3v-1h-4v-1h-5v-1h-5v-1h-13v-1h-211v-1h-211v-1" fill="url(#c)"/></g></g><g clip-path="url(#f)"><path d="m243.68 832.72c54.578 0 98.816 44.238 98.816 98.812 0 54.575-44.238 98.823-98.816 98.823-54.574 0-98.817-44.248-98.817-98.823 0-54.574 44.243-98.812 98.817-98.812" fill="url(#b)"/></g><g clip-path="url(#e)"><path d="m829.26 622.74-61.699 0.297h-2.5c-2.098 0-4.2-0.199-6.297-0.297l-230.5-4.5h-1.301c-1.598 0-3.102 0-4.602-0.203l-5.496-0.199-74.601-2.398c-35.801-1.2-55.703-12.602-66.2-22.2-0.601-0.5-1.203-1.101-1.804-1.699-2.196-2.199-4.399-5.199-6.098-7.699-1.402-2-2.5-3.699-2.699-4.098l-0.098-0.105c-7.601-10.899-17.699-19.699-29.801-24.301-1.8-0.699-3.601-1.195-5.398-1.699-1.504-0.399-3.004-0.699-4.602-0.996-0.199 0-0.503 0-0.8-0.102-1.602-0.297-3.301-0.402-5-0.496-1.102-0.105-2.203-0.203-3.301-0.105-8.598-0.297-15.602 1.3-18.699 2.203-1.203 0.297-1.903 0.496-1.903 0.496-3.699 1.101-7.297 2.5-10.695 4.203-13.301 7.699-24.305 21.199-24.305 21.199-9.101 10.602-20.297 19.301-32.898 25.399-12.797 6.101-27 9.5-42 9.5-54.602 0-98.801-44.2-98.801-98.801 0-54.5 44.199-98.699 98.801-98.699 20.699 0 39.801 6.406 55.699 17.402v-0.098s0.402 0.293 1.203 0.899c0.199 0.195 0.399 0.398 0.699 0.496 2.5 2.004 7.297 5.703 12.5 9.601 0.899 0.703 1.899 1.407 2.899 2.196 3.598 2.804 7.398 5.507 11.203 8.007 2.395 1.7 4.598 3.098 5.996 3.899 0.301 0.195 0.598 0.398 0.801 0.496 12.199 7.199 25.301 11.699 39.699 11.504 16.402-0.399 29.5-6.199 39.801-15.399 3-2.003 5.801-4.296 8.598-6.601 5.304-3.098 10.304-6.699 16.402-10.801 22.199-14.902 36.203-16.105 62.301-19.199 5.097-0.598 10.199-1.203 15.297-1.699l107.4 0.195c4.601-0.598 9.301-0.898 14-0.898l146.1 1.296 38.605 0.305h64.094c3.804 0 7.605 0.301 11.402 0.606 50.602 5.789 90.301 48.992 90.301 101.2v0.098c0 55.902-45.797 101.8-101.7 101.8" fill="url(#a)"/></g></g></g></svg>
